HIERARCHY
ROOT hip
{
	OFFSET 0.000000 0.000000 0.000000 
	CHANNELS 6 Xposition Yposition Zposition Xrotation Zrotation Yrotation
	JOINT abdomen
	{
		OFFSET 0.000000 3.402643 0.000000 
		CHANNELS 3 Xrotation Zrotation Yrotation
		JOINT chest
		{
			OFFSET 0.000000 8.438565 -0.680529 
			CHANNELS 3 Xrotation Zrotation Yrotation
			JOINT neck
			{
				OFFSET 0.000000 10.207942 -0.272212 
				CHANNELS 3 Xrotation Zrotation Yrotation
				JOINT head
				{
					OFFSET 0.000000 3.130431 0.000000 
					CHANNELS 3 Xrotation Zrotation Yrotation
					End Site
					{
						OFFSET 0.000000 3.130435 0.000000 
					}
				}
			}
			JOINT lCollar
			{
				OFFSET 3.470700 6.669187 -0.816635 
				CHANNELS 3 Yrotation Zrotation Xrotation
				JOINT lShldr
				{
					OFFSET 3.198488 0.000000 0.000000 
					CHANNELS 3 Zrotation Yrotation Xrotation
					JOINT lForeArm
					{
						OFFSET 10.139888 0.000000 0.000000 
						CHANNELS 3 Yrotation Zrotation Xrotation
						JOINT lHand
						{
							OFFSET 8.370511 0.000000 0.000000 
							CHANNELS 3 Zrotation Yrotation Xrotation
							End Site
							{
								OFFSET 4.083176 0.000000 0.000000 
							}
						}
					}
				}
			}
			JOINT rCollar
			{
				OFFSET -3.470700 6.669187 -0.816635 
				CHANNELS 3 Yrotation Zrotation Xrotation
				JOINT rShldr
				{
					OFFSET -3.198488 0.000000 0.000000 
					CHANNELS 3 Zrotation Yrotation Xrotation
					JOINT rForeArm
					{
						OFFSET -10.139888 0.000000 0.000000 
						CHANNELS 3 Yrotation Zrotation Xrotation
						JOINT rHand
						{
							OFFSET -8.370511 0.000000 0.000000 
							CHANNELS 3 Zrotation Yrotation Xrotation
							End Site
							{
								OFFSET -4.083176 0.000000 0.000000 
							}
						}
					}
				}
			}
		}
	}
	JOINT lThigh
	{
		OFFSET 5.308129 -1.633274 1.361059 
		CHANNELS 3 Xrotation Zrotation Yrotation
		JOINT lShin
		{
			OFFSET -2.041588 -20.007561 0.000000 
			CHANNELS 3 Xrotation Zrotation Yrotation
			JOINT lFoot
			{
				OFFSET 0.000000 -19.190928 -1.224953 
				CHANNELS 3 Xrotation Yrotation Zrotation
				End Site
				{
					OFFSET 0.000000 -2.449906 4.627600 
				}
			}
		}
	}
	JOINT rThigh
	{
		OFFSET -5.308129 -1.633274 1.361059 
		CHANNELS 3 Xrotation Zrotation Yrotation
		JOINT rShin
		{
			OFFSET 2.041588 -20.007561 0.000000 
			CHANNELS 3 Xrotation Zrotation Yrotation
			JOINT rFoot
			{
				OFFSET 0.000000 -19.190928 -1.224953 
				CHANNELS 3 Xrotation Yrotation Zrotation
				End Site
				{
					OFFSET 0.000000 -2.449906 4.627600 
				}
			}
		}
	}
}
MOTION
Frames: 8
Frame Time: 0.016667
2.387436 -0.877077 1.412842 -99.618530 -0.449041 0.750600 19.104881 -3.285509 -1.664963 -28.948561 0.820381 0.151758 0.000000 0.000000 0.000000 -2.531446 16.137403 5.556346 1.993417 -2.013218 -0.007815 -43.055141 0.447745 -79.648178 1.199608 -4.602312 82.266693 3.604895 -0.195132 2.460925 -2.003164 1.994041 -0.018257 61.467850 -6.235271 -18.758379 1.241954 2.364971 100.049034 -14.697643 -2.935785 2.865072 6.219810 22.221809 -2.575422 19.054640 -3.806875 -1.453248 -2.968748 -0.000313 -0.010676 20.442226 -20.979731 -4.622793 -3.514447 4.042068 -0.154471 -0.507509 0.009392 0.024533 
2.363101 -0.891198 1.339496 -99.685020 -0.656496 0.875848 19.111017 -3.580791 -1.386234 -29.062759 0.230473 0.379731 0.000000 0.000000 0.000000 -3.789048 15.426805 4.481594 1.993417 -2.013218 -0.007815 -41.344967 -2.288664 -83.785667 1.577048 -4.847839 88.990196 3.604895 -0.195132 2.460925 -2.003164 1.994041 -0.018257 61.804134 -7.121319 -22.211920 1.265578 2.301889 97.698692 -14.697643 -2.935785 2.865072 6.260122 22.683973 -1.521485 19.315746 -3.786094 -1.517296 -2.968724 -0.007350 -0.013555 20.476492 -20.720850 -4.668458 -3.515193 4.042917 -0.125215 -0.507257 0.015211 0.026769 
2.360470 -0.924128 1.292617 -99.925934 -0.838571 0.834480 19.083900 -3.682943 -1.146642 -29.394556 -0.068067 0.546158 0.000000 0.000000 0.000000 -4.376063 14.909530 4.009074 1.993417 -2.013218 -0.007815 -40.883526 -3.830591 -86.359077 1.964085 -5.023048 95.510040 3.604895 -0.195132 2.460925 -2.003164 1.994041 -0.018257 61.658001 -7.698415 -25.046049 1.283437 2.255691 96.086731 -14.697643 -2.935785 2.865072 6.737726 23.035044 -0.478109 19.268656 -3.777208 -1.483869 -2.968681 -0.018850 -0.007711 20.611589 -20.544197 -4.508346 -3.514872 4.041197 -0.164197 -0.526973 0.014987 0.016224 
2.378142 -0.947775 1.325638 -100.060081 -0.982207 0.672365 19.093275 -3.664270 -0.974875 -29.501961 -0.042497 0.609983 0.000000 0.000000 0.000000 -5.053037 14.895656 4.001731 1.993417 -2.013218 -0.007815 -41.147652 -4.076327 -86.840080 2.070456 -5.072894 97.335472 3.604895 -0.195132 2.460925 -2.003164 1.994041 -0.018257 61.074425 -7.792418 -27.364624 1.295686 2.196507 94.252136 -14.697643 -2.935785 2.865072 7.011744 23.220848 0.146563 19.306118 -3.786146 -1.506865 -2.968725 -0.011277 -0.004613 20.602680 -20.466587 -4.275586 -3.514850 4.041215 -0.164198 -0.527323 0.001030 0.010859 
2.385534 -0.956760 1.282652 -100.116570 -1.006712 0.547934 19.009403 -3.850873 -0.759314 -29.707577 -0.330803 0.764911 0.000000 0.000000 0.000000 -6.948628 15.661345 3.468625 1.993417 -2.013218 -0.007815 -41.102257 -4.370885 -84.918816 1.945923 -5.017426 95.316849 3.604895 -0.195132 2.460925 -2.003164 1.994041 -0.018257 60.818470 -8.434422 -29.906851 1.320542 2.138530 91.682961 -14.697643 -2.935785 2.865072 7.246048 23.241028 0.247458 19.286186 -3.788065 -1.496001 -2.978514 0.002898 0.001186 20.636570 -20.374557 -4.136664 -3.513014 4.029362 -0.173382 -0.517380 0.009905 0.014269 
2.405418 -0.966055 1.267113 -100.283173 -1.009032 0.471482 18.972427 -3.944127 -0.671182 -29.874254 -0.491147 0.838753 0.000000 0.000000 0.000000 -8.096726 15.438019 3.476063 1.993417 -2.013218 -0.007815 -41.529411 -3.752202 -82.079254 1.645667 -4.880021 90.195534 3.604895 -0.195132 2.460925 -2.003164 1.994041 -0.018257 60.538651 -8.400691 -31.857018 1.332556 2.090777 90.080070 -14.697643 -2.935785 2.865072 7.470093 23.141272 -0.005109 19.268345 -3.777089 -1.493580 -2.968706 -0.007726 -0.024257 20.699940 -20.309639 -4.014815 -3.514633 4.042404 -0.144722 -0.527271 0.001207 0.021390 
2.424224 -0.972921 1.258250 -100.384239 -0.977987 0.508735 18.989958 -4.257864 -0.585003 -29.937914 -1.117106 1.014252 0.000000 0.000000 0.000000 -8.928436 15.676706 3.165616 1.993417 -2.013218 -0.007815 -41.376270 -3.919672 -79.207802 1.520038 -4.800972 88.065239 3.604895 -0.195132 2.460925 -2.003164 1.994041 -0.018257 60.956993 -8.441169 -33.813152 1.342724 2.069698 89.113235 -14.697643 -2.935785 2.865072 7.470652 23.112379 -0.069167 19.366022 -3.786841 -1.502143 -2.978506 0.000558 -0.020869 20.814236 -20.337418 -4.056461 -3.513005 4.029370 -0.173383 -0.516885 0.021555 0.018747 
2.446711 -0.974525 1.260077 -100.614571 -1.032098 0.496106 19.124887 -4.171320 -0.683611 -29.879120 -1.100828 0.944789 0.000000 0.000000 0.000000 -9.348574 15.977760 3.675687 1.993417 -2.013218 -0.007815 -42.262390 -3.481963 -77.307465 1.650089 -4.868976 90.283722 3.604895 -0.195132 2.460925 -2.003164 1.994041 -0.018257 60.674702 -7.761189 -35.145241 1.344581 2.043359 88.534378 -14.697643 -2.935785 2.865072 7.810245 23.215548 0.422189 19.405153 -3.786872 -1.524448 -2.968723 0.022085 -0.022610 21.051693 -20.251797 -4.030137 -3.514828 4.041233 -0.164199 -0.517432 0.008065 0.013562 
